<mxfile host="app.diagrams.net" modified="2020-11-10T19:59:16.798Z" agent="5.0 (Macintosh; Intel Mac OS X 10_15_7) AppleWebKit/605.1.15 (KHTML, like Gecko) Version/14.0 Safari/605.1.15" etag="Kcb3oUpC1vMNMdQHF3nE" version="13.9.2" type="github">
  <diagram id="enq9tbYXUga7cvXpYVXk" name="Page-1">
    <mxGraphModel dx="1295" dy="962" grid="1" gridSize="10" guides="1" tooltips="1" connect="1" arrows="1" fold="1" page="1" pageScale="1" pageWidth="1600" pageHeight="900" math="0" shadow="0">
      <root>
        <mxCell id="0" />
        <mxCell id="1" parent="0" />
        <mxCell id="UUqpzmmsJI0lA6TKm8VX-53" value="" style="shape=ext;double=1;rounded=0;whiteSpace=wrap;html=1;strokeWidth=1;fontFamily=Georgia;fillColor=#f9f7ed;strokeColor=#36393d;" parent="1" vertex="1">
          <mxGeometry x="760" y="295" width="350" height="426.5" as="geometry" />
        </mxCell>
        <mxCell id="UUqpzmmsJI0lA6TKm8VX-51" value="" style="shape=ext;double=1;rounded=0;whiteSpace=wrap;html=1;strokeWidth=1;fontFamily=Georgia;fillColor=#f9f7ed;strokeColor=#36393d;" parent="1" vertex="1">
          <mxGeometry x="505" y="295" width="190" height="497" as="geometry" />
        </mxCell>
        <mxCell id="UUqpzmmsJI0lA6TKm8VX-1" value="&lt;h1&gt;Diagram poteka za izračun vsote dveh števil&lt;/h1&gt;&lt;p&gt;&lt;br&gt;&lt;/p&gt;" style="text;html=1;strokeColor=none;fillColor=none;spacing=5;spacingTop=-20;whiteSpace=wrap;overflow=hidden;rounded=0;fontFamily=Georgia;" parent="1" vertex="1">
          <mxGeometry x="80" y="50" width="690" height="40" as="geometry" />
        </mxCell>
        <mxCell id="UUqpzmmsJI0lA6TKm8VX-4" style="edgeStyle=orthogonalEdgeStyle;rounded=0;orthogonalLoop=1;jettySize=auto;html=1;entryX=0.5;entryY=0;entryDx=0;entryDy=0;fontFamily=Georgia;strokeWidth=2;" parent="1" source="UUqpzmmsJI0lA6TKm8VX-2" target="UUqpzmmsJI0lA6TKm8VX-3" edge="1">
          <mxGeometry relative="1" as="geometry" />
        </mxCell>
        <mxCell id="UUqpzmmsJI0lA6TKm8VX-2" value="Začetek" style="rounded=1;whiteSpace=wrap;html=1;fontFamily=Georgia;strokeWidth=2;fillColor=#f5f5f5;strokeColor=#666666;fontColor=#333333;" parent="1" vertex="1">
          <mxGeometry x="210" y="210" width="120" height="60" as="geometry" />
        </mxCell>
        <mxCell id="UUqpzmmsJI0lA6TKm8VX-6" style="edgeStyle=orthogonalEdgeStyle;rounded=0;orthogonalLoop=1;jettySize=auto;html=1;strokeWidth=2;fontFamily=Georgia;" parent="1" source="UUqpzmmsJI0lA6TKm8VX-3" target="UUqpzmmsJI0lA6TKm8VX-5" edge="1">
          <mxGeometry relative="1" as="geometry" />
        </mxCell>
        <mxCell id="UUqpzmmsJI0lA6TKm8VX-3" value="Komentar" style="shape=parallelogram;perimeter=parallelogramPerimeter;whiteSpace=wrap;html=1;fixedSize=1;strokeWidth=2;fontFamily=Georgia;fillColor=#f8cecc;strokeColor=#b85450;rounded=1;" parent="1" vertex="1">
          <mxGeometry x="210" y="310" width="120" height="60" as="geometry" />
        </mxCell>
        <mxCell id="UUqpzmmsJI0lA6TKm8VX-8" style="edgeStyle=orthogonalEdgeStyle;rounded=0;orthogonalLoop=1;jettySize=auto;html=1;entryX=0.5;entryY=0;entryDx=0;entryDy=0;strokeWidth=2;fontFamily=Georgia;" parent="1" source="UUqpzmmsJI0lA6TKm8VX-5" target="UUqpzmmsJI0lA6TKm8VX-7" edge="1">
          <mxGeometry relative="1" as="geometry" />
        </mxCell>
        <mxCell id="UUqpzmmsJI0lA6TKm8VX-5" value="prvoStevilo, drugoStevilo" style="shape=parallelogram;perimeter=parallelogramPerimeter;whiteSpace=wrap;html=1;fixedSize=1;strokeWidth=2;fontFamily=Georgia;fillColor=#f8cecc;strokeColor=#b85450;rounded=1;" parent="1" vertex="1">
          <mxGeometry x="210" y="410" width="120" height="60" as="geometry" />
        </mxCell>
        <mxCell id="UUqpzmmsJI0lA6TKm8VX-11" style="edgeStyle=orthogonalEdgeStyle;rounded=0;orthogonalLoop=1;jettySize=auto;html=1;entryX=0.5;entryY=0;entryDx=0;entryDy=0;strokeWidth=2;fontFamily=Georgia;" parent="1" source="UUqpzmmsJI0lA6TKm8VX-7" target="UUqpzmmsJI0lA6TKm8VX-9" edge="1">
          <mxGeometry relative="1" as="geometry" />
        </mxCell>
        <mxCell id="UUqpzmmsJI0lA6TKm8VX-7" value="vsota = prvoStevilo + drugoStevilo" style="rounded=0;whiteSpace=wrap;html=1;strokeWidth=2;fontFamily=Georgia;fillColor=#ffe6cc;strokeColor=#d79b00;" parent="1" vertex="1">
          <mxGeometry x="210" y="510" width="120" height="60" as="geometry" />
        </mxCell>
        <mxCell id="UUqpzmmsJI0lA6TKm8VX-12" style="edgeStyle=orthogonalEdgeStyle;rounded=0;orthogonalLoop=1;jettySize=auto;html=1;entryX=0.5;entryY=0;entryDx=0;entryDy=0;strokeWidth=2;fontFamily=Georgia;" parent="1" source="UUqpzmmsJI0lA6TKm8VX-9" target="UUqpzmmsJI0lA6TKm8VX-10" edge="1">
          <mxGeometry relative="1" as="geometry" />
        </mxCell>
        <mxCell id="UUqpzmmsJI0lA6TKm8VX-9" value="Vsota" style="shape=parallelogram;perimeter=parallelogramPerimeter;whiteSpace=wrap;html=1;fixedSize=1;strokeWidth=2;fontFamily=Georgia;fillColor=#f8cecc;strokeColor=#b85450;rounded=1;" parent="1" vertex="1">
          <mxGeometry x="210" y="614.5" width="120" height="60" as="geometry" />
        </mxCell>
        <mxCell id="UUqpzmmsJI0lA6TKm8VX-10" value="Konec" style="rounded=1;whiteSpace=wrap;html=1;fontFamily=Georgia;strokeWidth=2;fillColor=#f5f5f5;strokeColor=#666666;fontColor=#333333;" parent="1" vertex="1">
          <mxGeometry x="210" y="720" width="120" height="60" as="geometry" />
        </mxCell>
        <mxCell id="UUqpzmmsJI0lA6TKm8VX-52" style="edgeStyle=orthogonalEdgeStyle;rounded=0;orthogonalLoop=1;jettySize=auto;html=1;exitX=0.5;exitY=1;exitDx=0;exitDy=0;entryX=0.5;entryY=0;entryDx=0;entryDy=0;strokeWidth=2;fontFamily=Georgia;" parent="1" source="UUqpzmmsJI0lA6TKm8VX-13" target="UUqpzmmsJI0lA6TKm8VX-51" edge="1">
          <mxGeometry relative="1" as="geometry" />
        </mxCell>
        <mxCell id="UUqpzmmsJI0lA6TKm8VX-13" value="izracunaj" style="shape=process;whiteSpace=wrap;html=1;backgroundOutline=1;rounded=1;strokeWidth=2;fontFamily=Georgia;fillColor=#e1d5e7;strokeColor=#9673a6;" parent="1" vertex="1">
          <mxGeometry x="540" y="210" width="120" height="60" as="geometry" />
        </mxCell>
        <mxCell id="F52S8Ay3OE0nJUGaeNSr-6" style="edgeStyle=orthogonalEdgeStyle;rounded=0;orthogonalLoop=1;jettySize=auto;html=1;strokeWidth=2;align=left;" parent="1" edge="1">
          <mxGeometry relative="1" as="geometry">
            <mxPoint x="850" y="295" as="targetPoint" />
            <mxPoint x="850" y="250" as="sourcePoint" />
          </mxGeometry>
        </mxCell>
        <mxCell id="UUqpzmmsJI0lA6TKm8VX-14" value="ponovi" style="shape=process;whiteSpace=wrap;html=1;backgroundOutline=1;rounded=1;strokeWidth=2;fontFamily=Georgia;fillColor=#e1d5e7;strokeColor=#9673a6;" parent="1" vertex="1">
          <mxGeometry x="790" y="209" width="120" height="58" as="geometry" />
        </mxCell>
        <mxCell id="UUqpzmmsJI0lA6TKm8VX-15" style="edgeStyle=orthogonalEdgeStyle;rounded=0;orthogonalLoop=1;jettySize=auto;html=1;strokeWidth=2;fontFamily=Georgia;" parent="1" source="UUqpzmmsJI0lA6TKm8VX-16" target="UUqpzmmsJI0lA6TKm8VX-18" edge="1">
          <mxGeometry relative="1" as="geometry" />
        </mxCell>
        <mxCell id="UUqpzmmsJI0lA6TKm8VX-16" value="Komentar" style="shape=parallelogram;perimeter=parallelogramPerimeter;whiteSpace=wrap;html=1;fixedSize=1;strokeWidth=2;fontFamily=Georgia;fillColor=#f8cecc;strokeColor=#b85450;rounded=1;" parent="1" vertex="1">
          <mxGeometry x="540" y="312" width="120" height="60" as="geometry" />
        </mxCell>
        <mxCell id="UUqpzmmsJI0lA6TKm8VX-17" style="edgeStyle=orthogonalEdgeStyle;rounded=0;orthogonalLoop=1;jettySize=auto;html=1;entryX=0.5;entryY=0;entryDx=0;entryDy=0;strokeWidth=2;fontFamily=Georgia;" parent="1" source="UUqpzmmsJI0lA6TKm8VX-18" target="UUqpzmmsJI0lA6TKm8VX-20" edge="1">
          <mxGeometry relative="1" as="geometry" />
        </mxCell>
        <mxCell id="UUqpzmmsJI0lA6TKm8VX-18" value="prvoStevilo, drugoStevilo" style="shape=parallelogram;perimeter=parallelogramPerimeter;whiteSpace=wrap;html=1;fixedSize=1;strokeWidth=2;fontFamily=Georgia;fillColor=#f8cecc;strokeColor=#b85450;rounded=1;" parent="1" vertex="1">
          <mxGeometry x="540" y="412" width="120" height="60" as="geometry" />
        </mxCell>
        <mxCell id="UUqpzmmsJI0lA6TKm8VX-26" style="edgeStyle=orthogonalEdgeStyle;rounded=0;orthogonalLoop=1;jettySize=auto;html=1;entryX=0.5;entryY=0;entryDx=0;entryDy=0;strokeWidth=2;fontFamily=Georgia;" parent="1" source="UUqpzmmsJI0lA6TKm8VX-20" target="UUqpzmmsJI0lA6TKm8VX-21" edge="1">
          <mxGeometry relative="1" as="geometry" />
        </mxCell>
        <mxCell id="UUqpzmmsJI0lA6TKm8VX-20" value="vsota = prvoStevilo + drugoStevilo" style="rounded=0;whiteSpace=wrap;html=1;strokeWidth=2;fontFamily=Georgia;fillColor=#ffe6cc;strokeColor=#d79b00;" parent="1" vertex="1">
          <mxGeometry x="540" y="512" width="120" height="60" as="geometry" />
        </mxCell>
        <mxCell id="UUqpzmmsJI0lA6TKm8VX-27" style="edgeStyle=orthogonalEdgeStyle;rounded=0;orthogonalLoop=1;jettySize=auto;html=1;entryX=0.5;entryY=0;entryDx=0;entryDy=0;strokeWidth=2;fontFamily=Georgia;" parent="1" source="UUqpzmmsJI0lA6TKm8VX-21" target="UUqpzmmsJI0lA6TKm8VX-24" edge="1">
          <mxGeometry relative="1" as="geometry" />
        </mxCell>
        <mxCell id="UUqpzmmsJI0lA6TKm8VX-21" value="Vsota" style="shape=parallelogram;perimeter=parallelogramPerimeter;whiteSpace=wrap;html=1;fixedSize=1;strokeWidth=2;fontFamily=Georgia;fillColor=#f8cecc;strokeColor=#b85450;rounded=1;" parent="1" vertex="1">
          <mxGeometry x="540" y="610" width="120" height="60" as="geometry" />
        </mxCell>
        <mxCell id="UUqpzmmsJI0lA6TKm8VX-24" value="ponovi" style="shape=process;whiteSpace=wrap;html=1;backgroundOutline=1;rounded=1;strokeWidth=2;fontFamily=Georgia;fillColor=#e1d5e7;strokeColor=#9673a6;" parent="1" vertex="1">
          <mxGeometry x="540" y="715" width="120" height="60" as="geometry" />
        </mxCell>
        <mxCell id="UUqpzmmsJI0lA6TKm8VX-32" style="edgeStyle=orthogonalEdgeStyle;rounded=0;orthogonalLoop=1;jettySize=auto;html=1;entryX=0.5;entryY=0;entryDx=0;entryDy=0;strokeWidth=2;fontFamily=Georgia;" parent="1" source="UUqpzmmsJI0lA6TKm8VX-28" target="UUqpzmmsJI0lA6TKm8VX-31" edge="1">
          <mxGeometry relative="1" as="geometry" />
        </mxCell>
        <mxCell id="UUqpzmmsJI0lA6TKm8VX-28" value="ponovim" style="shape=parallelogram;perimeter=parallelogramPerimeter;whiteSpace=wrap;html=1;fixedSize=1;strokeWidth=2;fontFamily=Georgia;fillColor=#f8cecc;strokeColor=#b85450;rounded=1;" parent="1" vertex="1">
          <mxGeometry x="790" y="312" width="120" height="60" as="geometry" />
        </mxCell>
        <mxCell id="UUqpzmmsJI0lA6TKm8VX-34" style="edgeStyle=orthogonalEdgeStyle;rounded=0;orthogonalLoop=1;jettySize=auto;html=1;entryX=0;entryY=0.5;entryDx=0;entryDy=0;strokeWidth=2;fontFamily=Georgia;" parent="1" source="UUqpzmmsJI0lA6TKm8VX-31" target="UUqpzmmsJI0lA6TKm8VX-33" edge="1">
          <mxGeometry relative="1" as="geometry" />
        </mxCell>
        <mxCell id="UUqpzmmsJI0lA6TKm8VX-41" style="edgeStyle=orthogonalEdgeStyle;rounded=0;orthogonalLoop=1;jettySize=auto;html=1;entryX=0.5;entryY=0;entryDx=0;entryDy=0;strokeWidth=2;fontFamily=Georgia;" parent="1" source="UUqpzmmsJI0lA6TKm8VX-31" target="UUqpzmmsJI0lA6TKm8VX-36" edge="1">
          <mxGeometry relative="1" as="geometry" />
        </mxCell>
        <mxCell id="UUqpzmmsJI0lA6TKm8VX-46" value="F" style="edgeLabel;html=1;align=center;verticalAlign=middle;resizable=0;points=[];fontFamily=Georgia;" parent="UUqpzmmsJI0lA6TKm8VX-41" vertex="1" connectable="0">
          <mxGeometry x="0.4167" y="1" relative="1" as="geometry">
            <mxPoint x="9" y="-10" as="offset" />
          </mxGeometry>
        </mxCell>
        <mxCell id="UUqpzmmsJI0lA6TKm8VX-48" value="F" style="edgeLabel;html=1;align=center;verticalAlign=middle;resizable=0;points=[];fontFamily=Georgia;" parent="UUqpzmmsJI0lA6TKm8VX-41" vertex="1" connectable="0">
          <mxGeometry x="0.4167" y="1" relative="1" as="geometry">
            <mxPoint x="9" y="110" as="offset" />
          </mxGeometry>
        </mxCell>
        <mxCell id="UUqpzmmsJI0lA6TKm8VX-31" value="D" style="rhombus;whiteSpace=wrap;html=1;rounded=1;strokeWidth=2;fontFamily=Georgia;" parent="1" vertex="1">
          <mxGeometry x="810" y="412" width="80" height="80" as="geometry" />
        </mxCell>
        <mxCell id="UUqpzmmsJI0lA6TKm8VX-33" value="izracunaj" style="shape=process;whiteSpace=wrap;html=1;backgroundOutline=1;rounded=1;strokeWidth=2;fontFamily=Georgia;fillColor=#e1d5e7;strokeColor=#9673a6;" parent="1" vertex="1">
          <mxGeometry x="950" y="422" width="120" height="60" as="geometry" />
        </mxCell>
        <mxCell id="UUqpzmmsJI0lA6TKm8VX-35" style="edgeStyle=orthogonalEdgeStyle;rounded=0;orthogonalLoop=1;jettySize=auto;html=1;entryX=0;entryY=0.5;entryDx=0;entryDy=0;strokeWidth=2;fontFamily=Georgia;" parent="1" source="UUqpzmmsJI0lA6TKm8VX-36" target="UUqpzmmsJI0lA6TKm8VX-43" edge="1">
          <mxGeometry relative="1" as="geometry">
            <mxPoint x="950" y="564" as="targetPoint" />
          </mxGeometry>
        </mxCell>
        <mxCell id="UUqpzmmsJI0lA6TKm8VX-42" style="edgeStyle=orthogonalEdgeStyle;rounded=0;orthogonalLoop=1;jettySize=auto;html=1;entryX=0;entryY=0.5;entryDx=0;entryDy=0;strokeWidth=2;fontFamily=Georgia;" parent="1" source="UUqpzmmsJI0lA6TKm8VX-36" target="UUqpzmmsJI0lA6TKm8VX-40" edge="1">
          <mxGeometry relative="1" as="geometry">
            <mxPoint x="850" y="630" as="targetPoint" />
            <Array as="points">
              <mxPoint x="850" y="670" />
            </Array>
          </mxGeometry>
        </mxCell>
        <mxCell id="UUqpzmmsJI0lA6TKm8VX-36" value="N" style="rhombus;whiteSpace=wrap;html=1;rounded=1;strokeWidth=2;fontFamily=Georgia;" parent="1" vertex="1">
          <mxGeometry x="810" y="524" width="80" height="80" as="geometry" />
        </mxCell>
        <mxCell id="UUqpzmmsJI0lA6TKm8VX-40" value="ponovi" style="shape=process;whiteSpace=wrap;html=1;backgroundOutline=1;rounded=1;strokeWidth=2;fontFamily=Georgia;fillColor=#e1d5e7;strokeColor=#9673a6;" parent="1" vertex="1">
          <mxGeometry x="950" y="640" width="120" height="60" as="geometry" />
        </mxCell>
        <mxCell id="UUqpzmmsJI0lA6TKm8VX-43" value="”niz”" style="shape=parallelogram;perimeter=parallelogramPerimeter;whiteSpace=wrap;html=1;fixedSize=1;strokeWidth=2;fontFamily=Georgia;fillColor=#f8cecc;strokeColor=#b85450;rounded=1;" parent="1" vertex="1">
          <mxGeometry x="950" y="534" width="120" height="60" as="geometry" />
        </mxCell>
        <mxCell id="UUqpzmmsJI0lA6TKm8VX-45" value="T" style="text;html=1;align=center;verticalAlign=middle;resizable=0;points=[];autosize=1;fontFamily=Georgia;fillColor=#d5e8d4;" parent="1" vertex="1">
          <mxGeometry x="890" y="430" width="20" height="20" as="geometry" />
        </mxCell>
        <mxCell id="UUqpzmmsJI0lA6TKm8VX-47" value="T" style="text;html=1;align=center;verticalAlign=middle;resizable=0;points=[];autosize=1;fontFamily=Georgia;fillColor=#d5e8d4;" parent="1" vertex="1">
          <mxGeometry x="890" y="542" width="20" height="20" as="geometry" />
        </mxCell>
        <mxCell id="UUqpzmmsJI0lA6TKm8VX-57" style="edgeStyle=orthogonalEdgeStyle;rounded=0;orthogonalLoop=1;jettySize=auto;html=1;entryX=0.5;entryY=0;entryDx=0;entryDy=0;strokeWidth=2;fontFamily=Georgia;" parent="1" source="UUqpzmmsJI0lA6TKm8VX-55" target="UUqpzmmsJI0lA6TKm8VX-56" edge="1">
          <mxGeometry relative="1" as="geometry" />
        </mxCell>
        <mxCell id="UUqpzmmsJI0lA6TKm8VX-55" value="izracunaj" style="shape=process;whiteSpace=wrap;html=1;backgroundOutline=1;rounded=1;strokeWidth=2;fontFamily=Georgia;fillColor=#e1d5e7;strokeColor=#9673a6;" parent="1" vertex="1">
          <mxGeometry x="1230" y="210" width="120" height="60" as="geometry" />
        </mxCell>
        <mxCell id="UUqpzmmsJI0lA6TKm8VX-59" style="edgeStyle=orthogonalEdgeStyle;rounded=0;orthogonalLoop=1;jettySize=auto;html=1;entryX=0.5;entryY=0;entryDx=0;entryDy=0;strokeWidth=2;fontFamily=Georgia;" parent="1" source="UUqpzmmsJI0lA6TKm8VX-56" target="UUqpzmmsJI0lA6TKm8VX-58" edge="1">
          <mxGeometry relative="1" as="geometry" />
        </mxCell>
        <mxCell id="UUqpzmmsJI0lA6TKm8VX-56" value="ponovi" style="shape=process;whiteSpace=wrap;html=1;backgroundOutline=1;rounded=1;strokeWidth=2;fontFamily=Georgia;fillColor=#e1d5e7;strokeColor=#9673a6;" parent="1" vertex="1">
          <mxGeometry x="1230" y="311" width="120" height="58" as="geometry" />
        </mxCell>
        <mxCell id="UUqpzmmsJI0lA6TKm8VX-58" value="izracunaj" style="rounded=0;whiteSpace=wrap;html=1;strokeWidth=2;fontFamily=Georgia;fillColor=#ffe6cc;strokeColor=#d79b00;" parent="1" vertex="1">
          <mxGeometry x="1230" y="410" width="120" height="60" as="geometry" />
        </mxCell>
        <mxCell id="UUqpzmmsJI0lA6TKm8VX-60" value="Zaporedje" style="text;html=1;strokeColor=none;fillColor=none;align=left;verticalAlign=middle;whiteSpace=wrap;rounded=0;fontFamily=Georgia;fontSize=15;fontStyle=1;" parent="1" vertex="1">
          <mxGeometry x="210" y="135" width="40" height="20" as="geometry" />
        </mxCell>
        <mxCell id="F52S8Ay3OE0nJUGaeNSr-3" style="edgeStyle=orthogonalEdgeStyle;rounded=0;orthogonalLoop=1;jettySize=auto;html=1;entryX=0.5;entryY=0;entryDx=0;entryDy=0;align=left;strokeWidth=2;" parent="1" target="UUqpzmmsJI0lA6TKm8VX-55" edge="1">
          <mxGeometry relative="1" as="geometry">
            <mxPoint x="970" y="145" as="sourcePoint" />
          </mxGeometry>
        </mxCell>
        <mxCell id="UUqpzmmsJI0lA6TKm8VX-61" value="Modularna struktura – funkcija" style="text;html=1;strokeColor=none;fillColor=none;align=left;verticalAlign=middle;whiteSpace=wrap;rounded=0;fontFamily=Georgia;fontSize=15;fontStyle=1;" parent="1" vertex="1">
          <mxGeometry x="500" y="130" width="420" height="30" as="geometry" />
        </mxCell>
        <mxCell id="yqWATx-qltcT1qXuTOcK-1" value="Vejitev" style="text;html=1;strokeColor=none;fillColor=none;align=left;verticalAlign=middle;whiteSpace=wrap;rounded=0;fontFamily=Georgia;fontSize=15;fontStyle=1;" parent="1" vertex="1">
          <mxGeometry x="950" y="352" width="40" height="20" as="geometry" />
        </mxCell>
        <mxCell id="1O0wpHyoQ25bpzVYRwgI-1" value="&lt;h3&gt;&lt;font face=&quot;Georgia&quot;&gt;Funkcija&lt;/font&gt;&lt;/h3&gt;" style="text;html=1;strokeColor=none;fillColor=none;align=center;verticalAlign=middle;whiteSpace=wrap;rounded=0;" vertex="1" parent="1">
          <mxGeometry x="580" y="820" width="40" height="20" as="geometry" />
        </mxCell>
        <mxCell id="1O0wpHyoQ25bpzVYRwgI-3" value="&lt;h3&gt;&lt;font face=&quot;Georgia&quot;&gt;Funkcija&lt;/font&gt;&lt;/h3&gt;" style="text;html=1;strokeColor=none;fillColor=none;align=center;verticalAlign=middle;whiteSpace=wrap;rounded=0;" vertex="1" parent="1">
          <mxGeometry x="910" y="820" width="40" height="20" as="geometry" />
        </mxCell>
      </root>
    </mxGraphModel>
  </diagram>
</mxfile>
